<svg width="28" height="3" viewBox="0 0 28 3" fill="none" xmlns="http://www.w3.org/2000/svg">
<path d="M1.46161 2.84855H1.89699L0.921148 1.33857L1.90276 0.0923697H1.46046L0.54005 1.25648H0.417637V0.0923697H0.060791V2.84855H0.417637V1.61311H0.662463L1.46161 2.84855Z" fill="white"/>
<path d="M4.68322 1.47046C4.68322 0.588967 4.23052 0.0546875 3.61845 0.0546875C3.00408 0.0546875 2.55253 0.588967 2.55253 1.47046C2.55253 2.35061 3.00408 2.88623 3.61845 2.88623C4.23052 2.88623 4.68322 2.35195 4.68322 1.47046ZM4.32983 1.47046C4.32983 2.14201 4.02496 2.50672 3.61845 2.50672C3.21079 2.50672 2.90707 2.14201 2.90707 1.47046C2.90707 0.79891 3.21079 0.434201 3.61845 0.434201C4.02496 0.434201 4.32983 0.79891 4.32983 1.47046Z" fill="white"/>
<path d="M5.40083 0.45035H6.13762V2.84855H6.49331V0.45035H7.23126V0.0923697H5.40083V0.45035Z" fill="white"/>
<path d="M8.12355 2.84855H9.62022V2.49057H8.48039V1.64676H9.52899V1.29012H8.48039V0.45035H9.60636V0.0923697H8.12355V2.84855Z" fill="white"/>
<path d="M10.3918 2.84855H10.4935C11.0316 2.84855 11.161 2.38291 11.1921 1.49738L11.2291 0.444967H12.0363V2.84855H12.3885V0.0923697H10.893L10.8526 1.38702C10.8272 2.18508 10.7441 2.47711 10.4611 2.48519L10.3918 2.48788V2.84855Z" fill="white"/>
<path d="M13.7563 1.20399V0.0923697H13.3983V2.84855H14.2841C14.8107 2.84855 15.1121 2.50672 15.111 2.01281C15.1121 1.52025 14.8107 1.20399 14.2841 1.20399H13.7563ZM13.7563 1.5539H14.2841C14.5901 1.5539 14.7587 1.75846 14.7587 2.00743C14.7587 2.26313 14.5901 2.49865 14.2841 2.49865H13.7563V1.5539Z" fill="white"/>
<path d="M16.0339 2.84855H16.3907V1.64676H17.5698V2.84855H17.9278V0.0923697H17.5698V1.29012H16.3907V0.0923697H16.0339V2.84855Z" fill="white"/>
<path d="M18.9353 0.0923697V2.84855H19.2633L20.4654 0.827172H20.4874V2.84855H20.8442V0.0923697H20.514L19.3106 2.11644H19.2887V0.0923697H18.9353Z" fill="white"/>
<path d="M21.8999 0.0923697V1.00212C21.8988 1.61715 22.2187 1.85939 22.736 1.85939C22.9635 1.85939 23.1599 1.82575 23.3296 1.76923V2.84855H23.683V0.0923697H23.3296V1.41394C23.1529 1.46911 22.9335 1.50276 22.736 1.50276C22.4277 1.50276 22.2522 1.38164 22.2522 1.00212V0.0923697H21.8999Z" fill="white"/>
<path d="M25.7365 1.29685H24.6879V1.64541H25.7365V1.29685Z" fill="white"/>
<path d="M27.5114 0.0923697H27.1788C27.1661 0.167734 26.9859 0.516294 26.6406 0.516294V0.858125C26.9085 0.858125 27.0945 0.734312 27.1337 0.653565H27.1534V2.84855H27.5114V0.0923697Z" fill="white"/>
</svg>
