<svg width="28" height="3" viewBox="0 0 28 3" fill="none" xmlns="http://www.w3.org/2000/svg">
<path d="M2.39216 2.79386H2.82753L1.85169 1.28389L2.8333 0.0376822H2.391L1.47059 1.20179H1.34818V0.0376822H0.991333V2.79386H1.34818V1.55843H1.59301L2.39216 2.79386Z" fill="white"/>
<path d="M3.6768 2.79386H4.03365V1.82489H4.51868C5.06723 1.82489 5.33862 1.43865 5.33862 0.929942C5.33862 0.422579 5.06954 0.0376822 4.51983 0.0376822H3.6768V2.79386ZM4.03365 1.4723V0.394317H4.48172C4.83511 0.394317 4.97946 0.617719 4.97946 0.929942C4.97946 1.24217 4.83511 1.4723 4.48634 1.4723H4.03365Z" fill="white"/>
<path d="M6.19366 2.79386L6.41077 2.06444H7.33464L7.5506 2.79386H7.92939L7.07827 0.0376822H6.66599L5.81487 2.79386H6.19366ZM6.51471 1.71454L6.86347 0.538317H6.88195L7.23071 1.71454H6.51471Z" fill="white"/>
<path d="M10.612 0.93398C10.5311 0.344523 10.135 0 9.63497 0C9.02291 0 8.57136 0.534279 8.57136 1.41577C8.57136 2.29727 9.0206 2.83155 9.63497 2.83155C10.1547 2.83155 10.5346 2.45203 10.612 1.90699L10.2517 1.90564C10.1904 2.25824 9.93639 2.45203 9.63728 2.45203C9.23193 2.45203 8.9259 2.09001 8.9259 1.41577C8.9259 0.746914 9.23078 0.379513 9.63844 0.379513C9.93985 0.379513 10.1928 0.577345 10.2517 0.93398H10.612Z" fill="white"/>
<path d="M11.5268 2.79386H11.8836V1.59207H13.0627V2.79386H13.4207V0.0376822H13.0627V1.23544H11.8836V0.0376822H11.5268V2.79386Z" fill="white"/>
<path d="M16.4827 1.41577C16.4827 0.534279 16.03 0 15.4179 0C14.8035 0 14.352 0.534279 14.352 1.41577C14.352 2.29592 14.8035 2.83155 15.4179 2.83155C16.03 2.83155 16.4827 2.29727 16.4827 1.41577ZM16.1293 1.41577C16.1293 2.08732 15.8244 2.45203 15.4179 2.45203C15.0102 2.45203 14.7065 2.08732 14.7065 1.41577C14.7065 0.744223 15.0102 0.379513 15.4179 0.379513C15.8244 0.379513 16.1293 0.744223 16.1293 1.41577Z" fill="white"/>
<path d="M18.9929 2.79386V0.0376822H18.1498C17.6013 0.0376822 17.3311 0.394317 17.3311 0.90168C17.3311 1.27177 17.4754 1.55304 17.7653 1.6782L17.241 2.79386H17.6475L18.1279 1.75088C18.136 1.75088 18.1429 1.75088 18.151 1.75088H18.636V2.79386H18.9929ZM18.636 1.39289H18.1833C17.8357 1.39289 17.6902 1.21256 17.6902 0.90168C17.6902 0.589457 17.8357 0.394317 18.188 0.394317H18.636V1.39289Z" fill="white"/>
<path d="M19.9992 2.79386H20.3561V1.82489H20.8411C21.3896 1.82489 21.661 1.43865 21.661 0.929942C21.661 0.422579 21.3919 0.0376822 20.8422 0.0376822H19.9992V2.79386ZM20.3561 1.4723V0.394317H20.8041C21.1575 0.394317 21.3019 0.617719 21.3019 0.929942C21.3019 1.24217 21.1575 1.4723 20.8088 1.4723H20.3561Z" fill="white"/>
<path d="M24.5316 0.93398C24.4507 0.344523 24.0546 0 23.5546 0C22.9425 0 22.491 0.534279 22.491 1.41577C22.491 2.29727 22.9402 2.83155 23.5546 2.83155C24.0742 2.83155 24.4542 2.45203 24.5316 1.90699L24.1712 1.90564C24.11 2.25824 23.856 2.45203 23.5569 2.45203C23.1515 2.45203 22.8455 2.09001 22.8455 1.41577C22.8455 0.746914 23.1504 0.379513 23.558 0.379513C23.8594 0.379513 24.1123 0.577345 24.1712 0.93398H24.5316Z" fill="white"/>
<path d="M26.8472 2.79386H27.2826L26.3067 1.28389L27.2883 0.0376822H26.846L25.9256 1.20179H25.8032V0.0376822H25.4464V2.79386H25.8032V1.55843H26.048L26.8472 2.79386Z" fill="white"/>
</svg>
