<svg width="26" height="4" viewBox="0 0 26 4" fill="none" xmlns="http://www.w3.org/2000/svg">
<path d="M0.984375 0.480065V3.23625H1.3239V1.24044H1.34584L2.04336 3.23221H2.32515L3.02267 1.24178H3.04461V3.23625H3.38414V0.480065H2.95107L2.19811 2.62257H2.1704L1.41744 0.480065H0.984375Z" fill="white"/>
<path d="M4.65088 3.23625L4.86799 2.50683H5.79186L6.00782 3.23625H6.38661L5.53549 0.480065H5.12321L4.27209 3.23625H4.65088ZM4.97193 2.15692L5.32069 0.980699H5.33917L5.68793 2.15692H4.97193Z" fill="white"/>
<path d="M7.21596 3.23625H7.5728V2.03445H8.75189V3.23625H9.10989V0.480065H8.75189V1.67782H7.5728V0.480065H7.21596V3.23625Z" fill="white"/>
<path d="M10.0007 0.838046H10.7375V3.23625H11.0932V0.838046H11.8312V0.480065H10.0007V0.838046Z" fill="white"/>
<path d="M12.8909 3.27393H13.0526C13.4221 3.27393 13.5445 3.03303 13.6485 2.75849L14.4661 0.480065H14.0919L13.5399 2.07348L12.9198 0.480065H12.541L13.3725 2.54855L13.339 2.64679C13.2882 2.79079 13.2096 2.90787 13.0329 2.90787H12.8909V3.27393Z" fill="white"/>
<path d="M15.2914 3.23625H15.6483V2.26728H16.1333C16.6818 2.26728 16.9532 1.88103 16.9532 1.37233C16.9532 0.864961 16.6841 0.480065 16.1344 0.480065H15.2914V3.23625ZM15.6483 1.91468V0.8367H16.0963C16.4497 0.8367 16.5941 1.0601 16.5941 1.37233C16.5941 1.68455 16.4497 1.91468 16.101 1.91468H15.6483Z" fill="white"/>
<path d="M19.9138 1.85816C19.9138 0.976662 19.4611 0.442383 18.8491 0.442383C18.2347 0.442383 17.7832 0.976662 17.7832 1.85816C17.7832 2.7383 18.2347 3.27393 18.8491 3.27393C19.4611 3.27393 19.9138 2.73965 19.9138 1.85816ZM19.5605 1.85816C19.5605 2.52971 19.2556 2.89442 18.8491 2.89442C18.4414 2.89442 18.1377 2.52971 18.1377 1.85816C18.1377 1.18661 18.4414 0.821896 18.8491 0.821896C19.2556 0.821896 19.5605 1.18661 19.5605 1.85816Z" fill="white"/>
<path d="M20.8465 3.23625H21.7531C22.3028 3.23625 22.5511 2.91729 22.5511 2.49472C22.5511 2.0681 22.2947 1.8272 22.0603 1.8124V1.78548C22.2774 1.72089 22.4587 1.54862 22.4587 1.2041C22.4587 0.796326 22.2162 0.480065 21.7127 0.480065H20.8465V3.23625ZM21.2034 2.87961V1.99677H21.7311C22.0176 1.99677 22.1966 2.2121 22.1966 2.47453C22.1966 2.706 22.0614 2.87961 21.7184 2.87961H21.2034ZM21.2034 1.67244V0.834008H21.6907C21.9737 0.834008 22.1088 1.00762 22.1088 1.2364C22.1088 1.50287 21.9217 1.67244 21.6815 1.67244H21.2034Z" fill="white"/>
<path d="M25.5166 1.85816C25.5166 0.976662 25.0639 0.442383 24.4518 0.442383C23.8375 0.442383 23.3859 0.976662 23.3859 1.85816C23.3859 2.7383 23.8375 3.27393 24.4518 3.27393C25.0639 3.27393 25.5166 2.73965 25.5166 1.85816ZM25.1632 1.85816C25.1632 2.52971 24.8583 2.89442 24.4518 2.89442C24.0442 2.89442 23.7405 2.52971 23.7405 1.85816C23.7405 1.18661 24.0442 0.821896 24.4518 0.821896C24.8583 0.821896 25.1632 1.18661 25.1632 1.85816Z" fill="white"/>
</svg>
