<svg width="12" height="4" viewBox="0 0 12 4" fill="none" xmlns="http://www.w3.org/2000/svg">
<path d="M2.29474 2.35425C2.29474 1.47276 1.84205 0.938477 1.22998 0.938477C0.615605 0.938477 0.164062 1.47276 0.164062 2.35425C0.164062 3.2344 0.615605 3.77002 1.22998 3.77002C1.84205 3.77002 2.29474 3.23574 2.29474 2.35425ZM1.94136 2.35425C1.94136 3.0258 1.63649 3.39051 1.22998 3.39051C0.822322 3.39051 0.518599 3.0258 0.518599 2.35425C0.518599 1.6827 0.822322 1.31799 1.22998 1.31799C1.63649 1.31799 1.94136 1.6827 1.94136 2.35425Z" fill="white"/>
<path d="M3.22745 0.976159V3.73234H3.56698V1.73653H3.58892L4.28644 3.7283H4.56822L5.26575 1.73788H5.28769V3.73234H5.62721V0.976159H5.19415L4.44119 3.11866H4.41347L3.66052 0.976159H3.22745Z" fill="white"/>
<path d="M8.65855 1.87246C8.57771 1.283 8.1816 0.938477 7.68156 0.938477C7.06949 0.938477 6.61795 1.47276 6.61795 2.35425C6.61795 3.23574 7.06718 3.77002 7.68156 3.77002C8.20124 3.77002 8.58118 3.39051 8.65855 2.84546L8.29824 2.84412C8.23704 3.19672 7.98297 3.39051 7.68387 3.39051C7.27852 3.39051 6.97249 3.02849 6.97249 2.35425C6.97249 1.68539 7.27736 1.31799 7.68502 1.31799C7.98644 1.31799 8.23935 1.51582 8.29824 1.87246H8.65855Z" fill="white"/>
<path d="M10.9742 3.73234H11.4096L10.4337 2.22236L11.4153 0.976159H10.973L10.0526 2.14027H9.93021V0.976159H9.57336V3.73234H9.93021V2.4969H10.175L10.9742 3.73234Z" fill="white"/>
</svg>
