<svg width="17" height="4" viewBox="0 0 17 4" fill="none" xmlns="http://www.w3.org/2000/svg">
<path d="M2.29602 0.871667H0.821289V3.62785H1.17814V1.22965H2.29602V0.871667Z" fill="white"/>
<path d="M3.007 3.62785H3.10863C3.64678 3.62785 3.77612 3.1622 3.8073 2.27667L3.84426 1.22426H4.65149V3.62785H5.00372V0.871667H3.5082L3.46778 2.16632C3.44237 2.96437 3.35923 3.25641 3.07629 3.26448L3.007 3.26718V3.62785Z" fill="white"/>
<path d="M6.21099 3.62785L6.4281 2.89843H7.35197L7.56793 3.62785H7.94672L7.0956 0.871667H6.68332L5.8322 3.62785H6.21099ZM6.53204 2.54852L6.8808 1.3723H6.89928L7.24804 2.54852H6.53204Z" fill="white"/>
<path d="M9.56713 3.66553C10.0499 3.66553 10.4044 3.32908 10.4032 2.87151C10.4044 2.52295 10.2231 2.27264 9.90897 2.21611V2.19458C10.1561 2.12056 10.3166 1.89447 10.3155 1.58494C10.3166 1.17985 10.0314 0.833984 9.57637 0.833984C9.14215 0.833984 8.79339 1.13948 8.78184 1.58763H9.12714C9.13522 1.33462 9.33963 1.1812 9.57175 1.1812C9.81311 1.1812 9.97133 1.35211 9.97017 1.60647C9.97133 1.87294 9.78771 2.04789 9.52556 2.04789H9.32577V2.38703H9.52556C9.85353 2.38703 10.0429 2.58082 10.0429 2.85806C10.0429 3.12587 9.84314 3.30755 9.56482 3.30755C9.30845 3.30755 9.10866 3.15413 9.0948 2.9092H8.73218C8.74719 3.35869 9.08903 3.66553 9.56713 3.66553Z" fill="white"/>
<path d="M13.4144 2.24976C13.4144 1.36826 12.9617 0.833984 12.3496 0.833984C11.7352 0.833984 11.2837 1.36826 11.2837 2.24976C11.2837 3.1299 11.7352 3.66553 12.3496 3.66553C12.9617 3.66553 13.4144 3.13125 13.4144 2.24976ZM13.061 2.24976C13.061 2.92131 12.7561 3.28602 12.3496 3.28602C11.9419 3.28602 11.6382 2.92131 11.6382 2.24976C11.6382 1.57821 11.9419 1.2135 12.3496 1.2135C12.7561 1.2135 13.061 1.57821 13.061 2.24976Z" fill="white"/>
<path d="M14.3471 3.62785H15.2536C15.8033 3.62785 16.0516 3.3089 16.0516 2.88632C16.0516 2.4597 15.7952 2.2188 15.5608 2.204V2.17708C15.7779 2.11249 15.9592 1.94023 15.9592 1.5957C15.9592 1.18793 15.7167 0.871667 15.2132 0.871667H14.3471V3.62785ZM14.7039 3.27121V2.38837H15.2317C15.5181 2.38837 15.6971 2.6037 15.6971 2.86613C15.6971 3.09761 15.562 3.27121 15.219 3.27121H14.7039ZM14.7039 2.06404V1.22561H15.1913C15.4742 1.22561 15.6093 1.39922 15.6093 1.628C15.6093 1.89447 15.4222 2.06404 15.182 2.06404H14.7039Z" fill="white"/>
</svg>
