<svg width="18" height="4" viewBox="0 0 18 4" fill="none" xmlns="http://www.w3.org/2000/svg">
<path d="M0.0947266 0.997225H0.831515V3.39543H1.18721V0.997225H1.92515V0.639245H0.0947266V0.997225Z" fill="white"/>
<path d="M3.17428 0.639245H2.81744V3.39543H3.17428V2.22459H3.58887C3.65354 2.98092 4.08083 3.43311 4.64555 3.43311C5.25762 3.43311 5.71032 2.89883 5.71032 2.01734C5.71032 1.13584 5.25762 0.601562 4.64555 0.601562C4.06467 0.601562 3.62929 1.07932 3.5831 1.87603H3.17428V0.639245ZM5.35693 2.01734C5.35693 2.68889 5.05206 3.0536 4.64555 3.0536C4.23789 3.0536 3.93417 2.68889 3.93417 2.01734C3.93417 1.34579 4.23789 0.981076 4.64555 0.981076C5.05206 0.981076 5.35693 1.34579 5.35693 2.01734Z" fill="white"/>
<path d="M6.58268 0.639245V3.39543H6.92221V1.39962H6.94415L7.64167 3.39139H7.92345L8.62098 1.40096H8.64292V3.39543H8.98244V0.639245H8.54938L7.79642 2.78175H7.7687L7.01575 0.639245H6.58268Z" fill="white"/>
<path d="M10.0494 3.39543H11.5461V3.03745H10.4062V2.19363H11.4548V1.837H10.4062V0.997225H11.5322V0.639245H10.0494V3.39543Z" fill="white"/>
<path d="M12.4967 3.39543H12.8535V2.19363H14.0326V3.39543H14.3906V0.639245H14.0326V1.837H12.8535V0.639245H12.4967V3.39543Z" fill="white"/>
<path d="M15.7584 1.75087V0.639245H15.4004V3.39543H16.2862C16.8128 3.39543 17.1142 3.0536 17.113 2.55969C17.1142 2.06713 16.8128 1.75087 16.2862 1.75087H15.7584ZM15.7584 2.10077H16.2862C16.5922 2.10077 16.7608 2.30533 16.7608 2.55431C16.7608 2.81001 16.5922 3.04552 16.2862 3.04552H15.7584V2.10077Z" fill="white"/>
</svg>
