<svg width="13" height="4" viewBox="0 0 13 4" fill="none" xmlns="http://www.w3.org/2000/svg">
<path d="M0.644531 1.23884H1.38132V3.63704H1.73701V1.23884H2.47496V0.880859H0.644531V1.23884Z" fill="white"/>
<path d="M3.36724 3.63704H4.27379C4.8235 3.63704 5.07179 3.31809 5.07179 2.89551C5.07179 2.46889 4.81541 2.228 4.58098 2.21319V2.18628C4.79809 2.12168 4.9794 1.94942 4.9794 1.6049C4.9794 1.19712 4.73688 0.880859 4.23337 0.880859H3.36724V3.63704ZM3.72409 3.28041V2.39757H4.25185C4.53825 2.39757 4.71725 2.61289 4.71725 2.87532C4.71725 3.1068 4.58214 3.28041 4.23915 3.28041H3.72409ZM3.72409 2.07323V1.2348H4.21143C4.49437 1.2348 4.62948 1.40841 4.62948 1.63719C4.62948 1.90366 4.4424 2.07323 4.20219 2.07323H3.72409Z" fill="white"/>
<path d="M5.98284 3.63704H7.47952V3.27906H6.33969V2.43525H7.38828V2.07861H6.33969V1.23884H7.46566V0.880859H5.98284V3.63704Z" fill="white"/>
<path d="M8.43012 3.63704H8.78697V2.66807H9.272C9.82055 2.66807 10.0919 2.28183 10.0919 1.77312C10.0919 1.26576 9.82286 0.880859 9.27316 0.880859H8.43012V3.63704ZM8.78697 2.31547V1.23749H9.23505C9.58843 1.23749 9.73279 1.4609 9.73279 1.77312C9.73279 2.08534 9.58843 2.31547 9.23967 2.31547H8.78697Z" fill="white"/>
<path d="M11.3584 1.99248V0.880859H11.0004V3.63704H11.8862C12.4128 3.63704 12.7142 3.29521 12.713 2.8013C12.7142 2.30874 12.4128 1.99248 11.8862 1.99248H11.3584ZM11.3584 2.34239H11.8862C12.1922 2.34239 12.3608 2.54695 12.3608 2.79592C12.3608 3.05162 12.1922 3.28714 11.8862 3.28714H11.3584V2.34239Z" fill="white"/>
</svg>
