<svg width="22" height="5" viewBox="0 0 22 5" fill="none" xmlns="http://www.w3.org/2000/svg">
<path d="M1.32355 3.43311H1.48523C1.85478 3.43311 1.97719 3.19221 2.08113 2.91767L2.89875 0.639245H2.52458L1.97257 2.23266L1.35242 0.639245H0.973633L1.80512 2.70773L1.77163 2.80597C1.72082 2.94997 1.64229 3.06705 1.4656 3.06705H1.32355V3.43311Z" fill="white"/>
<path d="M3.54506 3.39543H3.64669C4.18484 3.39543 4.31418 2.92978 4.34537 2.04425L4.38232 0.991842H5.18955V3.39543H5.54178V0.639245H4.04626L4.00584 1.9339C3.98043 2.73195 3.89729 3.02399 3.61435 3.03206L3.54506 3.03475V3.39543Z" fill="white"/>
<path d="M6.74905 3.39543L6.96616 2.66601H7.89003L8.10599 3.39543H8.48478L7.63366 0.639245H7.22138L6.37026 3.39543H6.74905ZM7.0701 2.3161L7.41886 1.13988H7.43734L7.7861 2.3161H7.0701Z" fill="white"/>
<path d="M9.31413 3.39543H9.67097V2.19363H10.8501V3.39543H11.2081V0.639245H10.8501V1.837H9.67097V0.639245H9.31413V3.39543Z" fill="white"/>
<path d="M13.233 1.84373H12.1844V2.19229H13.233V1.84373Z" fill="white"/>
<path d="M14.1697 3.43311H14.3314C14.7009 3.43311 14.8234 3.19221 14.9273 2.91767L15.7449 0.639245H15.3708L14.8187 2.23266L14.1986 0.639245H13.8198L14.6513 2.70773L14.6178 2.80597C14.567 2.94997 14.4885 3.06705 14.3118 3.06705H14.1697V3.43311Z" fill="white"/>
<path d="M16.3912 4.06159H16.7331V3.39543H18.321V4.05756H18.6628V3.04283H18.3949V0.639245H16.9363L16.8809 1.80335C16.8451 2.57046 16.7053 2.88672 16.5471 3.04283H16.3912V4.06159ZM16.9675 3.04283C17.1026 2.79117 17.1938 2.38608 17.2227 1.80335L17.2597 0.997225H18.053V3.04283H16.9675Z" fill="white"/>
<path d="M19.4665 2.52066C19.5115 3.04283 19.8048 3.43311 20.3753 3.43311C20.9458 3.43311 21.3107 2.93651 21.3107 2.16403V1.87737C21.3107 1.10489 20.9412 0.601562 20.3557 0.601562C19.799 0.601562 19.5115 0.997225 19.4653 1.53016H19.8291C19.866 1.17218 20.0104 0.959543 20.3557 0.959543C20.7356 0.959543 20.9481 1.31752 20.9493 1.87468H20.0774V2.22728H20.9481C20.9331 2.71311 20.7506 3.08051 20.3753 3.08051C20.0208 3.08051 19.8695 2.88403 19.8291 2.52066H19.4665Z" fill="white"/>
</svg>
