<svg width="22" height="10" viewBox="0 0 22 10" fill="none" xmlns="http://www.w3.org/2000/svg">
<path d="M1.57304 3.79193H2.47959C3.0293 3.79193 3.27759 3.47298 3.27759 3.0504C3.27759 2.62378 3.02121 2.38289 2.78678 2.36808V2.34117C3.00389 2.27657 3.1852 2.10431 3.1852 1.75979C3.1852 1.35201 2.94268 1.03575 2.43917 1.03575H1.57304V3.79193ZM1.92989 3.4353V2.55246H2.45765C2.74405 2.55246 2.92305 2.76778 2.92305 3.03021C2.92305 3.26169 2.78794 3.4353 2.44495 3.4353H1.92989ZM1.92989 2.22812V1.38969H2.41723C2.70017 1.38969 2.83528 1.5633 2.83528 1.79208C2.83528 2.05855 2.6482 2.22812 2.40799 2.22812H1.92989Z" fill="white"/>
<path d="M4.18864 3.79193H5.68532V3.43395H4.54549V2.59014H5.59408V2.2335H4.54549V1.39373H5.67146V1.03575H4.18864V3.79193Z" fill="white"/>
<path d="M6.45692 3.79193H6.55855C7.09671 3.79193 7.22605 3.32629 7.25723 2.44076L7.29418 1.38835H8.10142V3.79193H8.45364V1.03575H6.95813L6.91771 2.3304C6.8923 3.12846 6.80915 3.42049 6.52621 3.42857L6.45692 3.43126V3.79193Z" fill="white"/>
<path d="M9.46113 1.03575V3.79193H9.7891L10.9913 1.77055H11.0132V3.79193H11.3701V1.03575H11.0398L9.83645 3.05982H9.81451V1.03575H9.46113Z" fill="white"/>
<path d="M13.7793 3.79193H14.2146L13.2388 2.28195L14.2204 1.03575H13.7781L12.8577 2.19986H12.7353V1.03575H12.3784V3.79193H12.7353V2.55649H12.9801L13.7793 3.79193Z" fill="white"/>
<path d="M15.0639 1.03575V3.79193H15.3919L16.5941 1.77055H16.616V3.79193H16.9729V1.03575H16.6426L15.4392 3.05982H15.4173V1.03575H15.0639Z" fill="white"/>
<path d="M17.9812 1.03575V3.79193H18.3092L19.5114 1.77055H19.5333V3.79193H19.8902V1.03575H19.5599L18.3565 3.05982H18.3346V1.03575H17.9812ZM19.1626 0.335938C19.1626 0.471863 19.0979 0.591638 18.9363 0.591638C18.7723 0.591638 18.7111 0.470517 18.7111 0.335938H18.4281C18.4281 0.638741 18.6256 0.847338 18.9363 0.847338C19.2492 0.847338 19.4467 0.638741 19.4467 0.335938H19.1626Z" fill="white"/>
<path d="M0.09375 8.33963H0.450596V7.13784H1.62969V8.33963H1.98769V5.58345H1.62969V6.7812H0.450596V5.58345H0.09375V8.33963Z" fill="white"/>
<path d="M5.04963 6.96154C5.04963 6.08005 4.59694 5.54577 3.98487 5.54577C3.3705 5.54577 2.91895 6.08005 2.91895 6.96154C2.91895 7.84169 3.3705 8.37731 3.98487 8.37731C4.59694 8.37731 5.04963 7.84303 5.04963 6.96154ZM4.69625 6.96154C4.69625 7.63309 4.39138 7.9978 3.98487 7.9978C3.57721 7.9978 3.27349 7.63309 3.27349 6.96154C3.27349 6.28999 3.57721 5.92528 3.98487 5.92528C4.39138 5.92528 4.69625 6.28999 4.69625 6.96154Z" fill="white"/>
<path d="M5.98234 8.33963H6.88889C7.4386 8.33963 7.68689 8.02068 7.68689 7.5981C7.68689 7.17148 7.43051 6.93059 7.19608 6.91578V6.88887C7.41319 6.82427 7.5945 6.65201 7.5945 6.30748C7.5945 5.89971 7.35198 5.58345 6.84847 5.58345H5.98234V8.33963ZM6.33919 7.983V7.10016H6.86695C7.15335 7.10016 7.33235 7.31548 7.33235 7.57791C7.33235 7.80939 7.19724 7.983 6.85425 7.983H6.33919ZM6.33919 6.77582V5.93739H6.82653C7.10947 5.93739 7.24458 6.111 7.24458 6.33978C7.24458 6.60625 7.0575 6.77582 6.81729 6.77582H6.33919Z" fill="white"/>
<path d="M10.0727 5.58345H8.59794V8.33963H8.95479V5.94143H10.0727V5.58345Z" fill="white"/>
<path d="M12.9187 6.96154C12.9187 6.08005 12.466 5.54577 11.8539 5.54577C11.2395 5.54577 10.788 6.08005 10.788 6.96154C10.788 7.84169 11.2395 8.37731 11.8539 8.37731C12.466 8.37731 12.9187 7.84303 12.9187 6.96154ZM12.5653 6.96154C12.5653 7.63309 12.2604 7.9978 11.8539 7.9978C11.4462 7.9978 11.1425 7.63309 11.1425 6.96154C11.1425 6.28999 11.4462 5.92528 11.8539 5.92528C12.2604 5.92528 12.5653 6.28999 12.5653 6.96154Z" fill="white"/>
<path d="M13.8514 8.33963H14.2082V7.37066H14.6933C15.2418 7.37066 15.5132 6.98442 15.5132 6.47571C15.5132 5.96835 15.2441 5.58345 14.6944 5.58345H13.8514V8.33963ZM14.2082 7.01806V5.94008H14.6563C15.0097 5.94008 15.154 6.16349 15.154 6.47571C15.154 6.78793 15.0097 7.01806 14.6609 7.01806H14.2082Z" fill="white"/>
<path d="M18.4738 6.96154C18.4738 6.08005 18.0211 5.54577 17.409 5.54577C16.7947 5.54577 16.3431 6.08005 16.3431 6.96154C16.3431 7.84169 16.7947 8.37731 17.409 8.37731C18.0211 8.37731 18.4738 7.84303 18.4738 6.96154ZM18.1204 6.96154C18.1204 7.63309 17.8155 7.9978 17.409 7.9978C17.0014 7.9978 16.6977 7.63309 16.6977 6.96154C16.6977 6.28999 17.0014 5.92528 17.409 5.92528C17.8155 5.92528 18.1204 6.28999 18.1204 6.96154Z" fill="white"/>
<path d="M19.2275 9.0058H19.5693V8.33963H21.1572V9.00176H21.4991V7.98703H21.2312V5.58345H19.7726L19.7172 6.74756C19.6814 7.51466 19.5416 7.83092 19.3834 7.98703H19.2275V9.0058ZM19.8038 7.98703C19.9389 7.73537 20.0301 7.33029 20.059 6.74756L20.0959 5.94143H20.8893V7.98703H19.8038Z" fill="white"/>
</svg>
