<svg width="25" height="4" viewBox="0 0 25 4" fill="none" xmlns="http://www.w3.org/2000/svg">
<path d="M2.56952 2.97453V0.218346H1.72649C1.17794 0.218346 0.907705 0.574981 0.907705 1.08234C0.907705 1.45244 1.05206 1.73371 1.34192 1.85887L0.817627 2.97453H1.22413L1.70455 1.93154C1.71263 1.93154 1.71956 1.93154 1.72764 1.93154H2.21268V2.97453H2.56952ZM2.21268 1.57356H1.75998C1.41237 1.57356 1.26686 1.39322 1.26686 1.08234C1.26686 0.770121 1.41237 0.574981 1.7646 0.574981H2.21268V1.57356Z" fill="white"/>
<path d="M3.57585 2.97453H3.9327V2.00556H4.41773C4.96628 2.00556 5.23767 1.61932 5.23767 1.11061C5.23767 0.603243 4.96859 0.218346 4.41888 0.218346H3.57585V2.97453ZM3.9327 1.65296V0.574981H4.38077C4.73416 0.574981 4.87851 0.798383 4.87851 1.11061C4.87851 1.42283 4.73416 1.65296 4.38539 1.65296H3.9327Z" fill="white"/>
<path d="M8.19827 1.59644C8.19827 0.714943 7.74558 0.180664 7.13351 0.180664C6.51913 0.180664 6.06759 0.714943 6.06759 1.59644C6.06759 2.47658 6.51913 3.01221 7.13351 3.01221C7.74558 3.01221 8.19827 2.47793 8.19827 1.59644ZM7.84489 1.59644C7.84489 2.26799 7.54001 2.6327 7.13351 2.6327C6.72585 2.6327 6.42213 2.26799 6.42213 1.59644C6.42213 0.924887 6.72585 0.560177 7.13351 0.560177C7.54001 0.560177 7.84489 0.924887 7.84489 1.59644Z" fill="white"/>
<path d="M11.0954 1.11464C11.0145 0.525187 10.6184 0.180664 10.1184 0.180664C9.50631 0.180664 9.05476 0.714943 9.05476 1.59644C9.05476 2.47793 9.504 3.01221 10.1184 3.01221C10.6381 3.01221 11.018 2.6327 11.0954 2.08765L10.7351 2.08631C10.6739 2.4389 10.4198 2.6327 10.1207 2.6327C9.71533 2.6327 9.4093 2.27068 9.4093 1.59644C9.4093 0.927578 9.71418 0.560177 10.1218 0.560177C10.4232 0.560177 10.6762 0.758009 10.7351 1.11464H11.0954Z" fill="white"/>
<path d="M11.8312 2.97453H11.9328C12.471 2.97453 12.6003 2.50888 12.6315 1.62335L12.6684 0.570944H13.4757V2.97453H13.8279V0.218346H12.3324L12.292 1.513C12.2665 2.31105 12.1834 2.60309 11.9005 2.61116L11.8312 2.61386V2.97453Z" fill="white"/>
<path d="M15.0352 2.97453L15.2523 2.24511H16.1761L16.3921 2.97453H16.7709L15.9198 0.218346H15.5075L14.6564 2.97453H15.0352ZM15.3562 1.8952L15.705 0.718981H15.7235L16.0722 1.8952H15.3562Z" fill="white"/>
<path d="M17.6002 2.97453H18.5068C19.0565 2.97453 19.3048 2.65558 19.3048 2.233C19.3048 1.80638 19.0484 1.56548 18.814 1.55068V1.52376C19.0311 1.45917 19.2124 1.28691 19.2124 0.942382C19.2124 0.534607 18.9699 0.218346 18.4664 0.218346H17.6002V2.97453ZM17.9571 2.61789V1.73505H18.4848C18.7712 1.73505 18.9503 1.95038 18.9503 2.21281C18.9503 2.44429 18.8151 2.61789 18.4721 2.61789H17.9571ZM17.9571 1.41072V0.572289H18.4444C18.7274 0.572289 18.8625 0.745897 18.8625 0.974681C18.8625 1.24115 18.6754 1.41072 18.4352 1.41072H17.9571Z" fill="white"/>
<path d="M20.0368 2.97453H20.1385C20.6766 2.97453 20.806 2.50888 20.8371 1.62335L20.8741 0.570944H21.6813V2.97453H22.0336V0.218346H20.538L20.4976 1.513C20.4722 2.31105 20.3891 2.60309 20.1061 2.61116L20.0368 2.61386V2.97453Z" fill="white"/>
<path d="M23.4014 1.32997V0.218346H23.0434V2.97453H23.9291C24.4557 2.97453 24.7571 2.6327 24.756 2.13879C24.7571 1.64623 24.4557 1.32997 23.9291 1.32997H23.4014ZM23.4014 1.67988H23.9291C24.2351 1.67988 24.4038 1.88444 24.4038 2.13341C24.4038 2.38911 24.2351 2.62462 23.9291 2.62462H23.4014V1.67988Z" fill="white"/>
</svg>
